<?xml version="1.0" encoding="utf-8"?>
<!-- Generator: Adobe Illustrator 16.0.0, SVG Export Plug-In . SVG Version: 6.00 Build 0)  -->
<!DOCTYPE svg PUBLIC "-//W3C//DTD SVG 1.1//EN" "http://www.w3.org/Graphics/SVG/1.1/DTD/svg11.dtd">
<svg version="1.1" id="Capa_1" xmlns="http://www.w3.org/2000/svg" xmlns:xlink="http://www.w3.org/1999/xlink" x="0px" y="0px"
	 width="15px" height="15px" viewBox="230.042 230.042 15 15" enable-background="new 230.042 230.042 15 15" xml:space="preserve">
<g>
	<path fill="#898383" d="M244.708,243.077l-3.092-3.092c0.746-1.076,1.118-2.275,1.118-3.597c0-0.859-0.167-1.681-0.501-2.465
		c-0.333-0.784-0.783-1.46-1.352-2.028s-1.244-1.019-2.027-1.352c-0.785-0.333-1.607-0.5-2.466-0.5s-1.681,0.167-2.465,0.5
		s-1.46,0.784-2.028,1.352s-1.019,1.244-1.352,2.028s-0.5,1.606-0.5,2.465s0.167,1.681,0.5,2.465s0.784,1.46,1.352,2.028
		s1.244,1.019,2.028,1.352c0.784,0.334,1.606,0.501,2.465,0.501c1.322,0,2.521-0.373,3.597-1.118l3.092,3.083
		c0.217,0.229,0.486,0.343,0.811,0.343c0.312,0,0.584-0.114,0.812-0.343c0.228-0.228,0.342-0.499,0.342-0.812
		C245.042,243.569,244.931,243.3,244.708,243.077z M239.241,239.241c-0.79,0.79-1.741,1.186-2.853,1.186s-2.062-0.396-2.853-1.186
		c-0.79-0.791-1.186-1.741-1.186-2.853s0.396-2.063,1.186-2.853c0.79-0.791,1.741-1.186,2.853-1.186s2.062,0.396,2.853,1.186
		s1.186,1.741,1.186,2.853S240.032,238.45,239.241,239.241z"/>
</g>
</svg>
